{
  "accessors": [
    {
      "bufferView": 2,
      "componentType": 5126,
      "count": 2584,
      "max": [
        1265.1231689453125,
        786.4356079101563,
        138.75057983398438
      ],
      "min": [
        -2595.418701171875,
        -781.925537109375,
        -487.6296081542969
      ],
      "type": "VEC3"
    },
    {
      "bufferView": 2,
      "byteOffset": 31008,
      "componentType": 5126,
      "count": 2584,
      "max": [
        1.0,
        1.0,
        1.0
      ],
      "min": [
        -1.0,
        -1.0,
        -1.0
      ],
      "type": "VEC3"
    },
    {
      "bufferView": 3,
      "componentType": 5126,
      "count": 2584,
      "max": [
        1.0,
        1.0,
        0.9077202677726746,
        1.0
      ],
      "min": [
        -1.0,
        -1.0,
        -0.9102135300636292,
        -1.0
      ],
      "type": "VEC4"
    },
    {
      "bufferView": 1,
      "componentType": 5126,
      "count": 2584,
      "max": [
        0.9961774349212646,
        0.9973005652427673
      ],
      "min": [
        -0.00026625674217939377,
        0.0005000000237487257
      ],
      "type": "VEC2"
    },
    {
      "bufferView": 0,
      "componentType": 5125,
      "count": 5994,
      "type": "SCALAR"
    },
    {
      "bufferView": 2,
      "byteOffset": 62016,
      "componentType": 5126,
      "count": 5420,
      "max": [
        1029.8648681640625,
        782.2430419921875,
        1375.2049560546875
      ],
      "min": [
        -1156.410400390625,
        -777.8426513671875,
        -251.70504760742188
      ],
      "type": "VEC3"
    },
    {
      "bufferView": 2,
      "byteOffset": 127056,
      "componentType": 5126,
      "count": 5420,
      "max": [
        1.0,
        1.0,
        1.0
      ],
      "min": [
        -1.0,
        -1.0,
        -1.0
      ],
      "type": "VEC3"
    },
    {
      "bufferView": 3,
      "byteOffset": 41344,
      "componentType": 5126,
      "count": 5420,
      "max": [
        1.0,
        1.0,
        0.9999995827674866,
        1.0
      ],
      "min": [
        -1.0,
        -1.0,
        -0.9999992251396179,
        -1.0
      ],
      "type": "VEC4"
    },
    {
      "bufferView": 1,
      "byteOffset": 20672,
      "componentType": 5126,
      "count": 5420,
      "max": [
        0.9987337589263916,
        0.9982130527496338
      ],
      "min": [
        -0.00026625674217939377,
        0.014029819518327713
      ],
      "type": "VEC2"
    },
    {
      "bufferView": 0,
      "byteOffset": 23976,
      "componentType": 5125,
      "count": 14622,
      "type": "SCALAR"
    },
    {
      "bufferView": 2,
      "byteOffset": 192096,
      "componentType": 5126,
      "count": 742,
      "max": [
        1068.6871337890625,
        702.5668334960938,
        1367.314453125
      ],
      "min": [
        -909.1181030273438,
        -725.3046264648438,
        42.312225341796875
      ],
      "type": "VEC3"
    },
    {
      "bufferView": 2,
      "byteOffset": 201000,
      "componentType": 5126,
      "count": 742,
      "max": [
        1.0,
        1.0,
        1.0
      ],
      "min": [
        -1.0,
        -1.0,
        -1.0
      ],
      "type": "VEC3"
    },
    {
      "bufferView": 3,
      "byteOffset": 128064,
      "componentType": 5126,
      "count": 742,
      "max": [
        1.0,
        1.0,
        0.22327286005020142,
        1.0
      ],
      "min": [
        -1.0,
        -1.0,
        -0.004496862646192312,
        1.0
      ],
      "type": "VEC4"
    },
    {
      "bufferView": 1,
      "byteOffset": 64032,
      "componentType": 5126,
      "count": 742,
      "max": [
        0.9971555471420288,
        0.9921417236328125
      ],
      "min": [
        -0.00026625674217939377,
        0.0005000000237487257
      ],
      "type": "VEC2"
    },
    {
      "bufferView": 0,
      "byteOffset": 82464,
      "componentType": 5125,
      "count": 1356,
      "type": "SCALAR"
    }
  ],
  "asset": {
    "extras": {
      "author": "Pavel (https://sketchfab.com/kuznecovpm90)",
      "license": "CC-BY-4.0 (http://creativecommons.org/licenses/by/4.0/)",
      "source": "https://sketchfab.com/3d-models/stylized-cart-82da8a12b53e4581a20c9fc5c82fe7de",
      "title": "Stylized cart"
    },
    "generator": "Sketchfab-15.38.0",
    "version": "2.0"
  },
  "bufferViews": [
    {
      "buffer": 0,
      "byteLength": 87888,
      "name": "floatBufferViews",
      "target": 34963
    },
    {
      "buffer": 0,
      "byteLength": 69968,
      "byteOffset": 87888,
      "byteStride": 8,
      "name": "floatBufferViews",
      "target": 34962
    },
    {
      "buffer": 0,
      "byteLength": 209904,
      "byteOffset": 157856,
      "byteStride": 12,
      "name": "floatBufferViews",
      "target": 34962
    },
    {
      "buffer": 0,
      "byteLength": 139936,
      "byteOffset": 367760,
      "byteStride": 16,
      "name": "floatBufferViews",
      "target": 34962
    }
  ],
  "buffers": [
    {
      "byteLength": 507696,
      "uri": "scene.bin"
    }
  ],
  "images": [
    {
      "uri": "textures/osnova_baseColor.jpeg"
    },
    {
      "uri": "textures/osnova_metallicRoughness.png"
    },
    {
      "uri": "textures/osnova_normal.png"
    },
    {
      "uri": "textures/Material3_baseColor.jpeg"
    },
    {
      "uri": "textures/Material3_metallicRoughness.png"
    },
    {
      "uri": "textures/Material3_normal.png"
    },
    {
      "uri": "textures/Material_2_baseColor.jpeg"
    },
    {
      "uri": "textures/Material_2_metallicRoughness.png"
    },
    {
      "uri": "textures/Material_2_normal.png"
    }
  ],
  "materials": [
    {
      "doubleSided": true,
      "name": "osnova",
      "normalTexture": {
        "index": 2
      },
      "occlusionTexture": {
        "index": 1
      },
      "pbrMetallicRoughness": {
        "baseColorTexture": {
          "index": 0
        },
        "metallicRoughnessTexture": {
          "index": 1
        }
      }
    },
    {
      "doubleSided": true,
      "name": "Material3",
      "normalTexture": {
        "index": 5
      },
      "occlusionTexture": {
        "index": 4
      },
      "pbrMetallicRoughness": {
        "baseColorTexture": {
          "index": 3
        },
        "metallicRoughnessTexture": {
          "index": 4
        }
      }
    },
    {
      "doubleSided": true,
      "name": "Material_2",
      "normalTexture": {
        "index": 8
      },
      "occlusionTexture": {
        "index": 7
      },
      "pbrMetallicRoughness": {
        "baseColorTexture": {
          "index": 6
        },
        "metallicRoughnessTexture": {
          "index": 7
        }
      }
    }
  ],
  "meshes": [
    {
      "name": "Box001_osnova_0",
      "primitives": [
        {
          "attributes": {
            "NORMAL": 1,
            "POSITION": 0,
            "TANGENT": 2,
            "TEXCOORD_0": 3
          },
          "indices": 4,
          "material": 0,
          "mode": 4
        }
      ]
    },
    {
      "name": "Box001_Material3_0",
      "primitives": [
        {
          "attributes": {
            "NORMAL": 6,
            "POSITION": 5,
            "TANGENT": 7,
            "TEXCOORD_0": 8
          },
          "indices": 9,
          "material": 1,
          "mode": 4
        }
      ]
    },
    {
      "name": "Box001_Material 2_0",
      "primitives": [
        {
          "attributes": {
            "NORMAL": 11,
            "POSITION": 10,
            "TANGENT": 12,
            "TEXCOORD_0": 13
          },
          "indices": 14,
          "material": 2,
          "mode": 4
        }
      ]
    }
  ],
  "nodes": [
    {
      "children": [
        1
      ],
      "matrix": [
        1.0,
        1.325055324123253e-19,
        -1.6081226229577292e-16,
        0.0,
        -1.6081230200044232e-16,
        0.0011935033835472897,
        -0.9999992847442627,
        0.0,
        5.942453242118733e-20,
        0.9999992847442627,
        0.0011935033835472897,
        0.0,
        0.0,
        0.0,
        0.0,
        1.0
      ],
      "name": "Sketchfab_model"
    },
    {
      "children": [
        2
      ],
      "matrix": [
        0.0010000000474974513,
        0.0,
        0.0,
        0.0,
        0.0,
        0.0,
        0.0010000000474974513,
        0.0,
        0.0,
        -0.0010000000474974513,
        0.0,
        0.0,
        0.0,
        0.0,
        0.0,
        1.0
      ],
      "name": "telega1.fbx"
    },
    {
      "children": [
        3
      ],
      "name": "RootNode"
    },
    {
      "children": [
        4,
        5,
        6
      ],
      "matrix": [
        1.1804310083389282,
        0.0,
        0.0,
        0.0,
        0.0,
        2.6210833688787365e-16,
        -1.1804310083389282,
        0.0,
        0.0,
        1.1804310083389282,
        2.6210833688787365e-16,
        0.0,
        -26.7261962890625,
        3.0517578125e-05,
        -10.984556198120117,
        1.0
      ],
      "name": "Box001"
    },
    {
      "mesh": 0,
      "name": "Box001_osnova_0"
    },
    {
      "mesh": 1,
      "name": "Box001_Material3_0"
    },
    {
      "mesh": 2,
      "name": "Box001_Material 2_0"
    }
  ],
  "samplers": [
    {
      "magFilter": 9729,
      "minFilter": 9987,
      "wrapS": 10497,
      "wrapT": 10497
    }
  ],
  "scene": 0,
  "scenes": [
    {
      "name": "Sketchfab_Scene",
      "nodes": [
        0
      ]
    }
  ],
  "textures": [
    {
      "sampler": 0,
      "source": 0
    },
    {
      "sampler": 0,
      "source": 1
    },
    {
      "sampler": 0,
      "source": 2
    },
    {
      "sampler": 0,
      "source": 3
    },
    {
      "sampler": 0,
      "source": 4
    },
    {
      "sampler": 0,
      "source": 5
    },
    {
      "sampler": 0,
      "source": 6
    },
    {
      "sampler": 0,
      "source": 7
    },
    {
      "sampler": 0,
      "source": 8
    }
  ]
}
